<svg width="50" height="50" viewBox="0 0 50 50" fill="none" xmlns="http://www.w3.org/2000/svg">
<path d="M31.1431 32.9834C31.0119 32.669 30.9234 32.3212 30.8838 31.9366C30.7311 30.487 30.9418 30.1147 31.1767 29.0374C31.4011 28.7993 31.6178 28.5339 31.8299 28.2348L31.0776 27.7435H19.1757L18.2525 28.3478C18.4372 28.6011 18.6279 28.8269 18.8232 29.0359C19.0597 30.1132 19.2673 30.4855 19.1178 31.9366C19.0781 32.3212 18.9895 32.669 18.8584 32.9834C16.9175 37.6648 5.69763 35.4889 5.69763 45.4834C5.69763 47.1313 11.2122 50 25 50C38.7878 50 44.3023 47.1313 44.3023 45.4834C44.3023 35.4889 33.0826 37.6648 31.1431 32.9834ZM38.501 47.1558C36.1236 47.7661 31.8497 48.4894 25 48.4894C18.1503 48.4894 13.8763 47.7661 11.499 47.1558C8.38162 46.3593 7.42947 45.5261 7.20974 45.2896C7.24636 43.0848 7.90251 41.5009 9.26667 40.3107C10.5759 39.1693 12.3947 38.5011 14.1541 37.8541C16.0019 37.1766 17.894 36.4808 19.1636 35.193L24.0403 39.2061L25.0001 39.9965L25.9598 39.2061L30.8366 35.193C32.1061 36.4809 33.9998 37.1767 35.8461 37.8541C37.6054 38.5011 39.4243 39.1694 40.735 40.3107C42.0976 41.501 42.7538 43.0848 42.7904 45.2896C42.5721 45.5262 41.6199 46.3593 38.501 47.1558Z" fill="#2790B0"/>
<path d="M31.6742 20.8725V27.0294L32.3258 27.4566C32.8094 26.6174 33.2703 25.5706 33.7402 24.2462C34.9838 23.7884 36.2472 22.7356 36.8347 20.1385C37.0743 19.0765 36.7279 18.0815 36.0779 17.3156L31.6742 20.8725Z" fill="#2790B0"/>
<path d="M13.9053 15.1123L14.2167 16.4337L18.866 20.1874H31.0502L36.0703 16.1347C36.3495 15.001 36.6837 13.2477 36.6654 11.4106H13.5468C13.6078 12.5244 13.7757 13.5041 13.9404 14.3769C13.9252 14.621 13.9053 14.8651 13.9053 15.1123Z" fill="#2790B0"/>
<path d="M16.2613 24.2462C16.7542 25.6348 17.2363 26.7166 17.7445 27.5757L18.2435 27.2491V20.8725L13.8901 17.3553C13.2614 18.1183 12.9304 19.0948 13.1669 20.14C13.7527 22.7356 15.0177 23.7915 16.2613 24.2462Z" fill="#2790B0"/>
<path d="M21.6293 8.23975C22.5006 9.1126 23.7106 9.65273 25.0427 9.65273C26.3732 9.65273 27.5833 9.1126 28.4546 8.23975C28.6881 8.00781 28.894 7.75146 29.0771 7.47676H35.8993C35.1974 5.92803 33.9324 4.64775 31.7749 4.07402C30.7724 2.81973 29.8233 2.13311 28.7872 1.78369C28.6834 1.654 28.5721 1.53193 28.4546 1.41289C27.5833 0.540137 26.3733 0 25.0428 0C23.7106 0 22.5007 0.540137 21.6294 1.41299C21.4371 1.60527 21.2616 1.81582 21.1029 2.03857C20.9732 2.03096 20.8328 2.01572 20.6772 1.99277C19.159 1.77305 17.9276 1.31221 17.5568 1.12607C17.3447 1.01924 15.3412 2.79541 14.7828 4.24805C14.3342 5.4123 14.0306 6.48496 13.8337 7.47686H21.0084C21.1898 7.75147 21.3974 8.00781 21.6293 8.23975ZM22.4015 2.18506C23.079 1.50752 24.0098 1.09248 25.0428 1.09248C26.0758 1.09248 27.0051 1.50752 27.6841 2.18506C28.36 2.8626 28.7766 3.79336 28.7781 4.82793C28.7765 5.85947 28.36 6.79023 27.6841 7.46768C27.0051 8.14522 26.0758 8.56328 25.0428 8.56328C24.0098 8.56328 23.079 8.14522 22.4015 7.46768C21.7239 6.79014 21.3074 5.85938 21.3074 4.82793C21.3074 3.79336 21.7239 2.8626 22.4015 2.18506Z" fill="#2790B0"/>
<path d="M25.0427 6.27744C25.8424 6.27744 26.4924 5.62744 26.4924 4.82783C26.4924 4.02519 25.8424 3.37822 25.0427 3.37822C24.2417 3.37822 23.5931 4.02519 23.5931 4.82783C23.5931 5.62744 24.2416 6.27744 25.0427 6.27744Z" fill="#2790B0"/>
</svg>
