<svg width="50" height="50" viewBox="0 0 50 50" fill="none" xmlns="http://www.w3.org/2000/svg">
<path d="M25 24.2234C27.0892 24.2234 29.0928 23.3935 30.5701 21.9162C32.0474 20.4389 32.8773 18.4353 32.8773 16.3461C32.8773 14.2569 32.0474 12.2533 30.5701 10.776C29.0928 9.29868 27.0892 8.46875 25 8.46875C22.9108 8.46875 20.9072 9.29868 19.4299 10.776C17.9526 12.2533 17.1227 14.2569 17.1227 16.3461C17.1227 18.4353 17.9526 20.4389 19.4299 21.9162C20.9072 23.3935 22.9108 24.2234 25 24.2234ZM25 27.6844C14.5266 27.6844 7.8125 33.4641 7.8125 36.2781V41.5328H42.1875V36.2781C42.1875 32.875 35.8313 27.6844 25 27.6844Z" fill="#2790B0"/>
</svg>
